<svg xmlns="http://www.w3.org/2000/svg" xmlns:xlink="http://www.w3.org/1999/xlink" version="1.1" class="marks" width="460" height="342" viewBox="0 0 460 342"><rect width="460" height="342" fill="white"/><g fill="none" stroke-miterlimit="10" transform="translate(54,5)"><g class="mark-group role-frame root" role="graphics-object" aria-roledescription="group mark container"><g transform="translate(0,0)"><path class="background" aria-hidden="true" d="M0.5,0.5h400v300h-400Z" stroke="#ddd"/><g><g class="mark-group role-axis" aria-hidden="true"><g transform="translate(0.5,0.5)"><path class="background" aria-hidden="true" d="M0,0h0v0h0Z" pointer-events="none"/><g><g class="mark-rule role-axis-grid" pointer-events="none"><line transform="translate(0,300)" x2="400" y2="0" stroke="#ddd" stroke-width="1" opacity="1"/><line transform="translate(0,242)" x2="400" y2="0" stroke="#ddd" stroke-width="1" opacity="1"/><line transform="translate(0,185)" x2="400" y2="0" stroke="#ddd" stroke-width="1" opacity="1"/><line transform="translate(0,127)" x2="400" y2="0" stroke="#ddd" stroke-width="1" opacity="1"/><line transform="translate(0,69)" x2="400" y2="0" stroke="#ddd" stroke-width="1" opacity="1"/><line transform="translate(0,12)" x2="400" y2="0" stroke="#ddd" stroke-width="1" opacity="1"/></g></g><path class="foreground" aria-hidden="true" d="" pointer-events="none" display="none"/></g></g><g class="mark-group role-axis" role="graphics-symbol" aria-roledescription="axis" aria-label="X-axis titled 'SQuAD Exact Match Score' for a linear scale with values from 0.0 to 1.0"><g transform="translate(0.5,300.5)"><path class="background" aria-hidden="true" d="M0,0h0v0h0Z" pointer-events="none"/><g><g class="mark-rule role-axis-tick" pointer-events="none"><line transform="translate(0,0)" x2="0" y2="5" stroke="#888" stroke-width="1" opacity="1"/><line transform="translate(4,0)" x2="0" y2="5" stroke="#888" stroke-width="1" opacity="1"/><line transform="translate(8,0)" x2="0" y2="5" stroke="#888" stroke-width="1" opacity="1"/><line transform="translate(12,0)" x2="0" y2="5" stroke="#888" stroke-width="1" opacity="1"/><line transform="translate(16,0)" x2="0" y2="5" stroke="#888" stroke-width="1" opacity="1"/><line transform="translate(20,0)" x2="0" y2="5" stroke="#888" stroke-width="1" opacity="1"/><line transform="translate(24,0)" x2="0" y2="5" stroke="#888" stroke-width="1" opacity="1"/><line transform="translate(28,0)" x2="0" y2="5" stroke="#888" stroke-width="1" opacity="1"/><line transform="translate(32,0)" x2="0" y2="5" stroke="#888" stroke-width="1" opacity="1"/><line transform="translate(36,0)" x2="0" y2="5" stroke="#888" stroke-width="1" opacity="1"/><line transform="translate(40,0)" x2="0" y2="5" stroke="#888" stroke-width="1" opacity="1"/><line transform="translate(44,0)" x2="0" y2="5" stroke="#888" stroke-width="1" opacity="1"/><line transform="translate(48,0)" x2="0" y2="5" stroke="#888" stroke-width="1" opacity="1"/><line transform="translate(52,0)" x2="0" y2="5" stroke="#888" stroke-width="1" opacity="1"/><line transform="translate(56,0)" x2="0" y2="5" stroke="#888" stroke-width="1" opacity="1"/><line transform="translate(60,0)" x2="0" y2="5" stroke="#888" stroke-width="1" opacity="1"/><line transform="translate(64,0)" x2="0" y2="5" stroke="#888" stroke-width="1" opacity="1"/><line transform="translate(68,0)" x2="0" y2="5" stroke="#888" stroke-width="1" opacity="1"/><line transform="translate(72,0)" x2="0" y2="5" stroke="#888" stroke-width="1" opacity="1"/><line transform="translate(76,0)" x2="0" y2="5" stroke="#888" stroke-width="1" opacity="1"/><line transform="translate(80,0)" x2="0" y2="5" stroke="#888" stroke-width="1" opacity="1"/><line transform="translate(84,0)" x2="0" y2="5" stroke="#888" stroke-width="1" opacity="1"/><line transform="translate(88,0)" x2="0" y2="5" stroke="#888" stroke-width="1" opacity="1"/><line transform="translate(92,0)" x2="0" y2="5" stroke="#888" stroke-width="1" opacity="1"/><line transform="translate(96,0)" x2="0" y2="5" stroke="#888" stroke-width="1" opacity="1"/><line transform="translate(100,0)" x2="0" y2="5" stroke="#888" stroke-width="1" opacity="1"/><line transform="translate(104,0)" x2="0" y2="5" stroke="#888" stroke-width="1" opacity="1"/><line transform="translate(108,0)" x2="0" y2="5" stroke="#888" stroke-width="1" opacity="1"/><line transform="translate(112,0)" x2="0" y2="5" stroke="#888" stroke-width="1" opacity="1"/><line transform="translate(116,0)" x2="0" y2="5" stroke="#888" stroke-width="1" opacity="1"/><line transform="translate(120,0)" x2="0" y2="5" stroke="#888" stroke-width="1" opacity="1"/><line transform="translate(124,0)" x2="0" y2="5" stroke="#888" stroke-width="1" opacity="1"/><line transform="translate(128,0)" x2="0" y2="5" stroke="#888" stroke-width="1" opacity="1"/><line transform="translate(132,0)" x2="0" y2="5" stroke="#888" stroke-width="1" opacity="1"/><line transform="translate(136,0)" x2="0" y2="5" stroke="#888" stroke-width="1" opacity="1"/><line transform="translate(140,0)" x2="0" y2="5" stroke="#888" stroke-width="1" opacity="1"/><line transform="translate(144,0)" x2="0" y2="5" stroke="#888" stroke-width="1" opacity="1"/><line transform="translate(148,0)" x2="0" y2="5" stroke="#888" stroke-width="1" opacity="1"/><line transform="translate(152,0)" x2="0" y2="5" stroke="#888" stroke-width="1" opacity="1"/><line transform="translate(156,0)" x2="0" y2="5" stroke="#888" stroke-width="1" opacity="1"/><line transform="translate(160,0)" x2="0" y2="5" stroke="#888" stroke-width="1" opacity="1"/><line transform="translate(164,0)" x2="0" y2="5" stroke="#888" stroke-width="1" opacity="1"/><line transform="translate(168,0)" x2="0" y2="5" stroke="#888" stroke-width="1" opacity="1"/><line transform="translate(172,0)" x2="0" y2="5" stroke="#888" stroke-width="1" opacity="1"/><line transform="translate(176,0)" x2="0" y2="5" stroke="#888" stroke-width="1" opacity="1"/><line transform="translate(180,0)" x2="0" y2="5" stroke="#888" stroke-width="1" opacity="1"/><line transform="translate(184,0)" x2="0" y2="5" stroke="#888" stroke-width="1" opacity="1"/><line transform="translate(188,0)" x2="0" y2="5" stroke="#888" stroke-width="1" opacity="1"/><line transform="translate(192,0)" x2="0" y2="5" stroke="#888" stroke-width="1" opacity="1"/><line transform="translate(196,0)" x2="0" y2="5" stroke="#888" stroke-width="1" opacity="1"/><line transform="translate(200,0)" x2="0" y2="5" stroke="#888" stroke-width="1" opacity="1"/><line transform="translate(204,0)" x2="0" y2="5" stroke="#888" stroke-width="1" opacity="1"/><line transform="translate(208,0)" x2="0" y2="5" stroke="#888" stroke-width="1" opacity="1"/><line transform="translate(212,0)" x2="0" y2="5" stroke="#888" stroke-width="1" opacity="1"/><line transform="translate(216,0)" x2="0" y2="5" stroke="#888" stroke-width="1" opacity="1"/><line transform="translate(220,0)" x2="0" y2="5" stroke="#888" stroke-width="1" opacity="1"/><line transform="translate(224,0)" x2="0" y2="5" stroke="#888" stroke-width="1" opacity="1"/><line transform="translate(228,0)" x2="0" y2="5" stroke="#888" stroke-width="1" opacity="1"/><line transform="translate(232,0)" x2="0" y2="5" stroke="#888" stroke-width="1" opacity="1"/><line transform="translate(236,0)" x2="0" y2="5" stroke="#888" stroke-width="1" opacity="1"/><line transform="translate(240,0)" x2="0" y2="5" stroke="#888" stroke-width="1" opacity="1"/><line transform="translate(244,0)" x2="0" y2="5" stroke="#888" stroke-width="1" opacity="1"/><line transform="translate(248,0)" x2="0" y2="5" stroke="#888" stroke-width="1" opacity="1"/><line transform="translate(252,0)" x2="0" y2="5" stroke="#888" stroke-width="1" opacity="1"/><line transform="translate(256,0)" x2="0" y2="5" stroke="#888" stroke-width="1" opacity="1"/><line transform="translate(260,0)" x2="0" y2="5" stroke="#888" stroke-width="1" opacity="1"/><line transform="translate(264,0)" x2="0" y2="5" stroke="#888" stroke-width="1" opacity="1"/><line transform="translate(268,0)" x2="0" y2="5" stroke="#888" stroke-width="1" opacity="1"/><line transform="translate(272,0)" x2="0" y2="5" stroke="#888" stroke-width="1" opacity="1"/><line transform="translate(276,0)" x2="0" y2="5" stroke="#888" stroke-width="1" opacity="1"/><line transform="translate(280,0)" x2="0" y2="5" stroke="#888" stroke-width="1" opacity="1"/><line transform="translate(284,0)" x2="0" y2="5" stroke="#888" stroke-width="1" opacity="1"/><line transform="translate(288,0)" x2="0" y2="5" stroke="#888" stroke-width="1" opacity="1"/><line transform="translate(292,0)" x2="0" y2="5" stroke="#888" stroke-width="1" opacity="1"/><line transform="translate(296,0)" x2="0" y2="5" stroke="#888" stroke-width="1" opacity="1"/><line transform="translate(300,0)" x2="0" y2="5" stroke="#888" stroke-width="1" opacity="1"/><line transform="translate(304,0)" x2="0" y2="5" stroke="#888" stroke-width="1" opacity="1"/><line transform="translate(308,0)" x2="0" y2="5" stroke="#888" stroke-width="1" opacity="1"/><line transform="translate(312,0)" x2="0" y2="5" stroke="#888" stroke-width="1" opacity="1"/><line transform="translate(316,0)" x2="0" y2="5" stroke="#888" stroke-width="1" opacity="1"/><line transform="translate(320,0)" x2="0" y2="5" stroke="#888" stroke-width="1" opacity="1"/><line transform="translate(324,0)" x2="0" y2="5" stroke="#888" stroke-width="1" opacity="1"/><line transform="translate(328,0)" x2="0" y2="5" stroke="#888" stroke-width="1" opacity="1"/><line transform="translate(332,0)" x2="0" y2="5" stroke="#888" stroke-width="1" opacity="1"/><line transform="translate(336,0)" x2="0" y2="5" stroke="#888" stroke-width="1" opacity="1"/><line transform="translate(340,0)" x2="0" y2="5" stroke="#888" stroke-width="1" opacity="1"/><line transform="translate(344,0)" x2="0" y2="5" stroke="#888" stroke-width="1" opacity="1"/><line transform="translate(348,0)" x2="0" y2="5" stroke="#888" stroke-width="1" opacity="1"/><line transform="translate(352,0)" x2="0" y2="5" stroke="#888" stroke-width="1" opacity="1"/><line transform="translate(356,0)" x2="0" y2="5" stroke="#888" stroke-width="1" opacity="1"/><line transform="translate(360,0)" x2="0" y2="5" stroke="#888" stroke-width="1" opacity="1"/><line transform="translate(364,0)" x2="0" y2="5" stroke="#888" stroke-width="1" opacity="1"/><line transform="translate(368,0)" x2="0" y2="5" stroke="#888" stroke-width="1" opacity="1"/><line transform="translate(372,0)" x2="0" y2="5" stroke="#888" stroke-width="1" opacity="1"/><line transform="translate(376,0)" x2="0" y2="5" stroke="#888" stroke-width="1" opacity="1"/><line transform="translate(380,0)" x2="0" y2="5" stroke="#888" stroke-width="1" opacity="1"/><line transform="translate(384,0)" x2="0" y2="5" stroke="#888" stroke-width="1" opacity="1"/><line transform="translate(388,0)" x2="0" y2="5" stroke="#888" stroke-width="1" opacity="1"/><line transform="translate(392,0)" x2="0" y2="5" stroke="#888" stroke-width="1" opacity="1"/><line transform="translate(396,0)" x2="0" y2="5" stroke="#888" stroke-width="1" opacity="1"/><line transform="translate(400,0)" x2="0" y2="5" stroke="#888" stroke-width="1" opacity="1"/></g><g class="mark-text role-axis-label" pointer-events="none"><text text-anchor="start" transform="translate(0,15)" font-family="sans-serif" font-size="10px" fill="#000" opacity="1">0.00</text><text text-anchor="middle" transform="translate(4,15)" font-family="sans-serif" font-size="10px" fill="#000" opacity="0">0.01</text><text text-anchor="middle" transform="translate(8,15)" font-family="sans-serif" font-size="10px" fill="#000" opacity="0">0.02</text><text text-anchor="middle" transform="translate(12,15)" font-family="sans-serif" font-size="10px" fill="#000" opacity="0">0.03</text><text text-anchor="middle" transform="translate(16,15)" font-family="sans-serif" font-size="10px" fill="#000" opacity="0">0.04</text><text text-anchor="middle" transform="translate(20,15)" font-family="sans-serif" font-size="10px" fill="#000" opacity="0">0.05</text><text text-anchor="middle" transform="translate(24,15)" font-family="sans-serif" font-size="10px" fill="#000" opacity="0">0.06</text><text text-anchor="middle" transform="translate(28.000000000000004,15)" font-family="sans-serif" font-size="10px" fill="#000" opacity="0">0.07</text><text text-anchor="middle" transform="translate(32,15)" font-family="sans-serif" font-size="10px" fill="#000" opacity="1">0.08</text><text text-anchor="middle" transform="translate(36,15)" font-family="sans-serif" font-size="10px" fill="#000" opacity="0">0.09</text><text text-anchor="middle" transform="translate(40,15)" font-family="sans-serif" font-size="10px" fill="#000" opacity="0">0.10</text><text text-anchor="middle" transform="translate(44,15)" font-family="sans-serif" font-size="10px" fill="#000" opacity="0">0.11</text><text text-anchor="middle" transform="translate(48,15)" font-family="sans-serif" font-size="10px" fill="#000" opacity="0">0.12</text><text text-anchor="middle" transform="translate(52,15)" font-family="sans-serif" font-size="10px" fill="#000" opacity="0">0.13</text><text text-anchor="middle" transform="translate(56.00000000000001,15)" font-family="sans-serif" font-size="10px" fill="#000" opacity="0">0.14</text><text text-anchor="middle" transform="translate(60,15)" font-family="sans-serif" font-size="10px" fill="#000" opacity="0">0.15</text><text text-anchor="middle" transform="translate(64,15)" font-family="sans-serif" font-size="10px" fill="#000" opacity="1">0.16</text><text text-anchor="middle" transform="translate(68,15)" font-family="sans-serif" font-size="10px" fill="#000" opacity="0">0.17</text><text text-anchor="middle" transform="translate(72,15)" font-family="sans-serif" font-size="10px" fill="#000" opacity="0">0.18</text><text text-anchor="middle" transform="translate(76,15)" font-family="sans-serif" font-size="10px" fill="#000" opacity="0">0.19</text><text text-anchor="middle" transform="translate(80,15)" font-family="sans-serif" font-size="10px" fill="#000" opacity="0">0.20</text><text text-anchor="middle" transform="translate(84,15)" font-family="sans-serif" font-size="10px" fill="#000" opacity="0">0.21</text><text text-anchor="middle" transform="translate(88,15)" font-family="sans-serif" font-size="10px" fill="#000" opacity="0">0.22</text><text text-anchor="middle" transform="translate(92,15)" font-family="sans-serif" font-size="10px" fill="#000" opacity="0">0.23</text><text text-anchor="middle" transform="translate(96,15)" font-family="sans-serif" font-size="10px" fill="#000" opacity="1">0.24</text><text text-anchor="middle" transform="translate(100,15)" font-family="sans-serif" font-size="10px" fill="#000" opacity="0">0.25</text><text text-anchor="middle" transform="translate(104,15)" font-family="sans-serif" font-size="10px" fill="#000" opacity="0">0.26</text><text text-anchor="middle" transform="translate(108,15)" font-family="sans-serif" font-size="10px" fill="#000" opacity="0">0.27</text><text text-anchor="middle" transform="translate(112.00000000000001,15)" font-family="sans-serif" font-size="10px" fill="#000" opacity="0">0.28</text><text text-anchor="middle" transform="translate(115.99999999999999,15)" font-family="sans-serif" font-size="10px" fill="#000" opacity="0">0.29</text><text text-anchor="middle" transform="translate(120,15)" font-family="sans-serif" font-size="10px" fill="#000" opacity="0">0.30</text><text text-anchor="middle" transform="translate(124,15)" font-family="sans-serif" font-size="10px" fill="#000" opacity="0">0.31</text><text text-anchor="middle" transform="translate(128,15)" font-family="sans-serif" font-size="10px" fill="#000" opacity="1">0.32</text><text text-anchor="middle" transform="translate(132,15)" font-family="sans-serif" font-size="10px" fill="#000" opacity="0">0.33</text><text text-anchor="middle" transform="translate(136,15)" font-family="sans-serif" font-size="10px" fill="#000" opacity="0">0.34</text><text text-anchor="middle" transform="translate(140,15)" font-family="sans-serif" font-size="10px" fill="#000" opacity="0">0.35</text><text text-anchor="middle" transform="translate(144,15)" font-family="sans-serif" font-size="10px" fill="#000" opacity="0">0.36</text><text text-anchor="middle" transform="translate(148,15)" font-family="sans-serif" font-size="10px" fill="#000" opacity="0">0.37</text><text text-anchor="middle" transform="translate(152,15)" font-family="sans-serif" font-size="10px" fill="#000" opacity="0">0.38</text><text text-anchor="middle" transform="translate(156,15)" font-family="sans-serif" font-size="10px" fill="#000" opacity="0">0.39</text><text text-anchor="middle" transform="translate(160,15)" font-family="sans-serif" font-size="10px" fill="#000" opacity="1">0.40</text><text text-anchor="middle" transform="translate(164,15)" font-family="sans-serif" font-size="10px" fill="#000" opacity="0">0.41</text><text text-anchor="middle" transform="translate(168,15)" font-family="sans-serif" font-size="10px" fill="#000" opacity="0">0.42</text><text text-anchor="middle" transform="translate(172,15)" font-family="sans-serif" font-size="10px" fill="#000" opacity="0">0.43</text><text text-anchor="middle" transform="translate(176,15)" font-family="sans-serif" font-size="10px" fill="#000" opacity="0">0.44</text><text text-anchor="middle" transform="translate(180,15)" font-family="sans-serif" font-size="10px" fill="#000" opacity="0">0.45</text><text text-anchor="middle" transform="translate(184,15)" font-family="sans-serif" font-size="10px" fill="#000" opacity="0">0.46</text><text text-anchor="middle" transform="translate(188,15)" font-family="sans-serif" font-size="10px" fill="#000" opacity="0">0.47</text><text text-anchor="middle" transform="translate(192,15)" font-family="sans-serif" font-size="10px" fill="#000" opacity="1">0.48</text><text text-anchor="middle" transform="translate(196,15)" font-family="sans-serif" font-size="10px" fill="#000" opacity="0">0.49</text><text text-anchor="middle" transform="translate(200,15)" font-family="sans-serif" font-size="10px" fill="#000" opacity="0">0.50</text><text text-anchor="middle" transform="translate(204,15)" font-family="sans-serif" font-size="10px" fill="#000" opacity="0">0.51</text><text text-anchor="middle" transform="translate(208,15)" font-family="sans-serif" font-size="10px" fill="#000" opacity="0">0.52</text><text text-anchor="middle" transform="translate(212,15)" font-family="sans-serif" font-size="10px" fill="#000" opacity="0">0.53</text><text text-anchor="middle" transform="translate(216,15)" font-family="sans-serif" font-size="10px" fill="#000" opacity="0">0.54</text><text text-anchor="middle" transform="translate(220.00000000000003,15)" font-family="sans-serif" font-size="10px" fill="#000" opacity="0">0.55</text><text text-anchor="middle" transform="translate(224.00000000000003,15)" font-family="sans-serif" font-size="10px" fill="#000" opacity="1">0.56</text><text text-anchor="middle" transform="translate(228.00000000000003,15)" font-family="sans-serif" font-size="10px" fill="#000" opacity="0">0.57</text><text text-anchor="middle" transform="translate(231.99999999999997,15)" font-family="sans-serif" font-size="10px" fill="#000" opacity="0">0.58</text><text text-anchor="middle" transform="translate(236,15)" font-family="sans-serif" font-size="10px" fill="#000" opacity="0">0.59</text><text text-anchor="middle" transform="translate(240,15)" font-family="sans-serif" font-size="10px" fill="#000" opacity="0">0.60</text><text text-anchor="middle" transform="translate(244,15)" font-family="sans-serif" font-size="10px" fill="#000" opacity="0">0.61</text><text text-anchor="middle" transform="translate(248,15)" font-family="sans-serif" font-size="10px" fill="#000" opacity="0">0.62</text><text text-anchor="middle" transform="translate(252,15)" font-family="sans-serif" font-size="10px" fill="#000" opacity="0">0.63</text><text text-anchor="middle" transform="translate(256,15)" font-family="sans-serif" font-size="10px" fill="#000" opacity="1">0.64</text><text text-anchor="middle" transform="translate(260,15)" font-family="sans-serif" font-size="10px" fill="#000" opacity="0">0.65</text><text text-anchor="middle" transform="translate(264,15)" font-family="sans-serif" font-size="10px" fill="#000" opacity="0">0.66</text><text text-anchor="middle" transform="translate(268,15)" font-family="sans-serif" font-size="10px" fill="#000" opacity="0">0.67</text><text text-anchor="middle" transform="translate(272,15)" font-family="sans-serif" font-size="10px" fill="#000" opacity="0">0.68</text><text text-anchor="middle" transform="translate(276,15)" font-family="sans-serif" font-size="10px" fill="#000" opacity="0">0.69</text><text text-anchor="middle" transform="translate(280,15)" font-family="sans-serif" font-size="10px" fill="#000" opacity="0">0.70</text><text text-anchor="middle" transform="translate(284,15)" font-family="sans-serif" font-size="10px" fill="#000" opacity="0">0.71</text><text text-anchor="middle" transform="translate(288,15)" font-family="sans-serif" font-size="10px" fill="#000" opacity="1">0.72</text><text text-anchor="middle" transform="translate(292,15)" font-family="sans-serif" font-size="10px" fill="#000" opacity="0">0.73</text><text text-anchor="middle" transform="translate(296,15)" font-family="sans-serif" font-size="10px" fill="#000" opacity="0">0.74</text><text text-anchor="middle" transform="translate(300,15)" font-family="sans-serif" font-size="10px" fill="#000" opacity="0">0.75</text><text text-anchor="middle" transform="translate(304,15)" font-family="sans-serif" font-size="10px" fill="#000" opacity="0">0.76</text><text text-anchor="middle" transform="translate(308,15)" font-family="sans-serif" font-size="10px" fill="#000" opacity="0">0.77</text><text text-anchor="middle" transform="translate(312,15)" font-family="sans-serif" font-size="10px" fill="#000" opacity="0">0.78</text><text text-anchor="middle" transform="translate(316,15)" font-family="sans-serif" font-size="10px" fill="#000" opacity="0">0.79</text><text text-anchor="middle" transform="translate(320,15)" font-family="sans-serif" font-size="10px" fill="#000" opacity="1">0.80</text><text text-anchor="middle" transform="translate(324,15)" font-family="sans-serif" font-size="10px" fill="#000" opacity="0">0.81</text><text text-anchor="middle" transform="translate(328,15)" font-family="sans-serif" font-size="10px" fill="#000" opacity="0">0.82</text><text text-anchor="middle" transform="translate(332,15)" font-family="sans-serif" font-size="10px" fill="#000" opacity="0">0.83</text><text text-anchor="middle" transform="translate(336,15)" font-family="sans-serif" font-size="10px" fill="#000" opacity="0">0.84</text><text text-anchor="middle" transform="translate(340,15)" font-family="sans-serif" font-size="10px" fill="#000" opacity="0">0.85</text><text text-anchor="middle" transform="translate(344,15)" font-family="sans-serif" font-size="10px" fill="#000" opacity="0">0.86</text><text text-anchor="middle" transform="translate(348,15)" font-family="sans-serif" font-size="10px" fill="#000" opacity="0">0.87</text><text text-anchor="middle" transform="translate(352,15)" font-family="sans-serif" font-size="10px" fill="#000" opacity="1">0.88</text><text text-anchor="middle" transform="translate(356,15)" font-family="sans-serif" font-size="10px" fill="#000" opacity="0">0.89</text><text text-anchor="middle" transform="translate(360,15)" font-family="sans-serif" font-size="10px" fill="#000" opacity="0">0.90</text><text text-anchor="middle" transform="translate(364,15)" font-family="sans-serif" font-size="10px" fill="#000" opacity="0">0.91</text><text text-anchor="middle" transform="translate(368,15)" font-family="sans-serif" font-size="10px" fill="#000" opacity="0">0.92</text><text text-anchor="middle" transform="translate(372,15)" font-family="sans-serif" font-size="10px" fill="#000" opacity="0">0.93</text><text text-anchor="middle" transform="translate(376,15)" font-family="sans-serif" font-size="10px" fill="#000" opacity="0">0.94</text><text text-anchor="middle" transform="translate(380,15)" font-family="sans-serif" font-size="10px" fill="#000" opacity="0">0.95</text><text text-anchor="middle" transform="translate(384,15)" font-family="sans-serif" font-size="10px" fill="#000" opacity="1">0.96</text><text text-anchor="middle" transform="translate(388,15)" font-family="sans-serif" font-size="10px" fill="#000" opacity="0">0.97</text><text text-anchor="middle" transform="translate(392,15)" font-family="sans-serif" font-size="10px" fill="#000" opacity="0">0.98</text><text text-anchor="middle" transform="translate(396,15)" font-family="sans-serif" font-size="10px" fill="#000" opacity="0">0.99</text><text text-anchor="end" transform="translate(400,15)" font-family="sans-serif" font-size="10px" fill="#000" opacity="0">1.00</text></g><g class="mark-rule role-axis-domain" pointer-events="none"><line transform="translate(0,0)" x2="400" y2="0" stroke="#888" stroke-width="1" opacity="1"/></g><g class="mark-text role-axis-title" pointer-events="none"><text text-anchor="middle" transform="translate(200,30)" font-family="sans-serif" font-size="11px" font-weight="bold" fill="#000" opacity="1">SQuAD Exact Match Score</text></g></g><path class="foreground" aria-hidden="true" d="" pointer-events="none" display="none"/></g></g><g class="mark-group role-axis" role="graphics-symbol" aria-roledescription="axis" aria-label="Y-axis titled 'Number of Questions' for a linear scale with values from 0 to 2,600"><g transform="translate(0.5,0.5)"><path class="background" aria-hidden="true" d="M0,0h0v0h0Z" pointer-events="none"/><g><g class="mark-rule role-axis-tick" pointer-events="none"><line transform="translate(0,300)" x2="-5" y2="0" stroke="#888" stroke-width="1" opacity="1"/><line transform="translate(0,242)" x2="-5" y2="0" stroke="#888" stroke-width="1" opacity="1"/><line transform="translate(0,185)" x2="-5" y2="0" stroke="#888" stroke-width="1" opacity="1"/><line transform="translate(0,127)" x2="-5" y2="0" stroke="#888" stroke-width="1" opacity="1"/><line transform="translate(0,69)" x2="-5" y2="0" stroke="#888" stroke-width="1" opacity="1"/><line transform="translate(0,12)" x2="-5" y2="0" stroke="#888" stroke-width="1" opacity="1"/></g><g class="mark-text role-axis-label" pointer-events="none"><text text-anchor="end" transform="translate(-7,303)" font-family="sans-serif" font-size="10px" fill="#000" opacity="1">0</text><text text-anchor="end" transform="translate(-7,245.30769230769232)" font-family="sans-serif" font-size="10px" fill="#000" opacity="1">500</text><text text-anchor="end" transform="translate(-7,187.6153846153846)" font-family="sans-serif" font-size="10px" fill="#000" opacity="1">1,000</text><text text-anchor="end" transform="translate(-7,129.92307692307693)" font-family="sans-serif" font-size="10px" fill="#000" opacity="1">1,500</text><text text-anchor="end" transform="translate(-7,72.23076923076921)" font-family="sans-serif" font-size="10px" fill="#000" opacity="1">2,000</text><text text-anchor="end" transform="translate(-7,14.538461538461531)" font-family="sans-serif" font-size="10px" fill="#000" opacity="1">2,500</text></g><g class="mark-rule role-axis-domain" pointer-events="none"><line transform="translate(0,300)" x2="0" y2="-300" stroke="#888" stroke-width="1" opacity="1"/></g><g class="mark-text role-axis-title" pointer-events="none"><text text-anchor="middle" transform="translate(-38,150) rotate(-90) translate(0,-2)" font-family="sans-serif" font-size="11px" font-weight="bold" fill="#000" opacity="1">Number of Questions</text></g></g><path class="foreground" aria-hidden="true" d="" pointer-events="none" display="none"/></g></g><g class="mark-rect role-mark marks" role="graphics-object" aria-roledescription="rect mark container"><path aria-label="SQuAD Exact Match Score: 0.98 – 0.99; Number of Questions: 2438" role="graphics-symbol" aria-roledescription="bar" d="M393,18.692307692307686h3v281.3076923076923h-3Z" fill="#4c78a8"/><path aria-label="SQuAD Exact Match Score: 0.96 – 0.97; Number of Questions: 1038" role="graphics-symbol" aria-roledescription="bar" d="M385,180.23076923076923h3v119.76923076923077h-3Z" fill="#4c78a8"/><path aria-label="SQuAD Exact Match Score: 0.81 – 0.82; Number of Questions: 146" role="graphics-symbol" aria-roledescription="bar" d="M325,283.1538461538462h3v16.84615384615381h-3Z" fill="#4c78a8"/><path aria-label="SQuAD Exact Match Score: 0.85 – 0.86; Number of Questions: 193" role="graphics-symbol" aria-roledescription="bar" d="M341,277.7307692307692h3v22.269230769230774h-3Z" fill="#4c78a8"/><path aria-label="SQuAD Exact Match Score: 0.89 – 0.9; Number of Questions: 162" role="graphics-symbol" aria-roledescription="bar" d="M357,281.3076923076923h3v18.69230769230768h-3Z" fill="#4c78a8"/><path aria-label="SQuAD Exact Match Score: 0.24 – 0.25; Number of Questions: 33" role="graphics-symbol" aria-roledescription="bar" d="M97,296.1923076923077h3v3.807692307692321h-3Z" fill="#4c78a8"/><path aria-label="SQuAD Exact Match Score: 0.16 – 0.17; Number of Questions: 34" role="graphics-symbol" aria-roledescription="bar" d="M65,296.0769230769231h3v3.9230769230769056h-3Z" fill="#4c78a8"/><path aria-label="SQuAD Exact Match Score: 0.34 – 0.35; Number of Questions: 39" role="graphics-symbol" aria-roledescription="bar" d="M137,295.5h3v4.5h-3Z" fill="#4c78a8"/><path aria-label="SQuAD Exact Match Score: 0.8 – 0.81; Number of Questions: 157" role="graphics-symbol" aria-roledescription="bar" d="M321,281.8846153846154h3v18.115384615384585h-3Z" fill="#4c78a8"/><path aria-label="SQuAD Exact Match Score: 0.11 – 0.12; Number of Questions: 41" role="graphics-symbol" aria-roledescription="bar" d="M45,295.2692307692308h3v4.730769230769226h-3Z" fill="#4c78a8"/><path aria-label="SQuAD Exact Match Score: 0.17 – 0.18; Number of Questions: 16" role="graphics-symbol" aria-roledescription="bar" d="M69,298.15384615384613h3v1.846153846153868h-3Z" fill="#4c78a8"/><path aria-label="SQuAD Exact Match Score: 0.08 – 0.09; Number of Questions: 49" role="graphics-symbol" aria-roledescription="bar" d="M33,294.34615384615387h3v5.653846153846132h-3Z" fill="#4c78a8"/><path aria-label="SQuAD Exact Match Score: 0.15 – 0.16; Number of Questions: 16" role="graphics-symbol" aria-roledescription="bar" d="M61,298.15384615384613h3v1.846153846153868h-3Z" fill="#4c78a8"/><path aria-label="SQuAD Exact Match Score: 0.88 – 0.89; Number of Questions: 276" role="graphics-symbol" aria-roledescription="bar" d="M353,268.15384615384613h3v31.846153846153868h-3Z" fill="#4c78a8"/><path aria-label="SQuAD Exact Match Score: 0.94 – 0.95; Number of Questions: 325" role="graphics-symbol" aria-roledescription="bar" d="M377,262.5h3v37.5h-3Z" fill="#4c78a8"/><path aria-label="SQuAD Exact Match Score: 0.82 – 0.83; Number of Questions: 89" role="graphics-symbol" aria-roledescription="bar" d="M329,289.7307692307692h3v10.269230769230774h-3Z" fill="#4c78a8"/><path aria-label="SQuAD Exact Match Score: 0.86 – 0.87; Number of Questions: 217" role="graphics-symbol" aria-roledescription="bar" d="M345,274.96153846153845h3v25.038461538461547h-3Z" fill="#4c78a8"/><path aria-label="SQuAD Exact Match Score: 0.63 – 0.64; Number of Questions: 67" role="graphics-symbol" aria-roledescription="bar" d="M253,292.2692307692308h3v7.730769230769226h-3Z" fill="#4c78a8"/><path aria-label="SQuAD Exact Match Score: 0.39 – 0.4; Number of Questions: 45" role="graphics-symbol" aria-roledescription="bar" d="M157,294.8076923076923h3v5.192307692307679h-3Z" fill="#4c78a8"/><path aria-label="SQuAD Exact Match Score: 0.9 – 0.91; Number of Questions: 290" role="graphics-symbol" aria-roledescription="bar" d="M361,266.53846153846155h3v33.46153846153845h-3Z" fill="#4c78a8"/><path aria-label="SQuAD Exact Match Score: 0.77 – 0.78; Number of Questions: 125" role="graphics-symbol" aria-roledescription="bar" d="M309,285.57692307692304h3v14.423076923076962h-3Z" fill="#4c78a8"/><path aria-label="SQuAD Exact Match Score: 0.95 – 0.96; Number of Questions: 659" role="graphics-symbol" aria-roledescription="bar" d="M381,223.96153846153848h3v76.03846153846152h-3Z" fill="#4c78a8"/><path aria-label="SQuAD Exact Match Score: 0.73 – 0.74; Number of Questions: 93" role="graphics-symbol" aria-roledescription="bar" d="M293,289.2692307692308h3v10.730769230769226h-3Z" fill="#4c78a8"/><path aria-label="SQuAD Exact Match Score: 0.03 – 0.04; Number of Questions: 57" role="graphics-symbol" aria-roledescription="bar" d="M13,293.4230769230769h3v6.576923076923094h-3Z" fill="#4c78a8"/><path aria-label="SQuAD Exact Match Score: 0.04 – 0.05; Number of Questions: 46" role="graphics-symbol" aria-roledescription="bar" d="M17,294.6923076923077h3v5.307692307692321h-3Z" fill="#4c78a8"/><path aria-label="SQuAD Exact Match Score: 0.87 – 0.88; Number of Questions: 130" role="graphics-symbol" aria-roledescription="bar" d="M349,285h3v15h-3Z" fill="#4c78a8"/><path aria-label="SQuAD Exact Match Score: 0.7 – 0.71; Number of Questions: 91" role="graphics-symbol" aria-roledescription="bar" d="M281,289.5h3v10.5h-3Z" fill="#4c78a8"/><path aria-label="SQuAD Exact Match Score: 0.59 – 0.6; Number of Questions: 63" role="graphics-symbol" aria-roledescription="bar" d="M237,292.7307692307692h3v7.269230769230774h-3Z" fill="#4c78a8"/><path aria-label="SQuAD Exact Match Score: 0.93 – 0.94; Number of Questions: 491" role="graphics-symbol" aria-roledescription="bar" d="M373,243.34615384615384h3v56.65384615384616h-3Z" fill="#4c78a8"/><path aria-label="SQuAD Exact Match Score: 0.47 – 0.48; Number of Questions: 38" role="graphics-symbol" aria-roledescription="bar" d="M189,295.61538461538464h3v4.384615384615358h-3Z" fill="#4c78a8"/><path aria-label="SQuAD Exact Match Score: 0.09 – 0.1; Number of Questions: 37" role="graphics-symbol" aria-roledescription="bar" d="M37,295.7307692307692h3v4.269230769230774h-3Z" fill="#4c78a8"/><path aria-label="SQuAD Exact Match Score: 0.54 – 0.55; Number of Questions: 55" role="graphics-symbol" aria-roledescription="bar" d="M217,293.65384615384613h3.0000000000000284v6.346153846153868h-3.0000000000000284Z" fill="#4c78a8"/><path aria-label="SQuAD Exact Match Score: 0.97 – 0.98; Number of Questions: 733" role="graphics-symbol" aria-roledescription="bar" d="M389,215.4230769230769h3v84.5769230769231h-3Z" fill="#4c78a8"/><path aria-label="SQuAD Exact Match Score: 0.25 – 0.26; Number of Questions: 13" role="graphics-symbol" aria-roledescription="bar" d="M101,298.5h3v1.5h-3Z" fill="#4c78a8"/><path aria-label="SQuAD Exact Match Score: 0.83 – 0.84; Number of Questions: 179" role="graphics-symbol" aria-roledescription="bar" d="M333,279.3461538461538h3v20.65384615384619h-3Z" fill="#4c78a8"/><path aria-label="SQuAD Exact Match Score: 0.28 – 0.29; Number of Questions: 26" role="graphics-symbol" aria-roledescription="bar" d="M113.00000000000001,297h3v3h-3Z" fill="#4c78a8"/><path aria-label="SQuAD Exact Match Score: 0.67 – 0.68; Number of Questions: 67" role="graphics-symbol" aria-roledescription="bar" d="M269,292.2692307692308h3v7.730769230769226h-3Z" fill="#4c78a8"/><path aria-label="SQuAD Exact Match Score: 0.72 – 0.73; Number of Questions: 107" role="graphics-symbol" aria-roledescription="bar" d="M289,287.6538461538462h3v12.346153846153811h-3Z" fill="#4c78a8"/><path aria-label="SQuAD Exact Match Score: 0.58 – 0.59; Number of Questions: 29" role="graphics-symbol" aria-roledescription="bar" d="M232.99999999999997,296.65384615384613h3.0000000000000284v3.346153846153868h-3.0000000000000284Z" fill="#4c78a8"/><path aria-label="SQuAD Exact Match Score: 0.68 – 0.69; Number of Questions: 81" role="graphics-symbol" aria-roledescription="bar" d="M273,290.65384615384613h3v9.346153846153868h-3Z" fill="#4c78a8"/><path aria-label="SQuAD Exact Match Score: 0.79 – 0.8; Number of Questions: 58" role="graphics-symbol" aria-roledescription="bar" d="M317,293.30769230769226h3v6.692307692307736h-3Z" fill="#4c78a8"/><path aria-label="SQuAD Exact Match Score: 0.75 – 0.76; Number of Questions: 100" role="graphics-symbol" aria-roledescription="bar" d="M301,288.46153846153845h3v11.538461538461547h-3Z" fill="#4c78a8"/><path aria-label="SQuAD Exact Match Score: 0.14 – 0.15; Number of Questions: 43" role="graphics-symbol" aria-roledescription="bar" d="M57.00000000000001,295.03846153846155h3v4.961538461538453h-3Z" fill="#4c78a8"/><path aria-label="SQuAD Exact Match Score: 0.62 – 0.63; Number of Questions: 72" role="graphics-symbol" aria-roledescription="bar" d="M249,291.6923076923077h3v8.30769230769232h-3Z" fill="#4c78a8"/><path aria-label="SQuAD Exact Match Score: 0.06 – 0.07; Number of Questions: 50" role="graphics-symbol" aria-roledescription="bar" d="M25,294.2307692307692h3.0000000000000036v5.769230769230774h-3.0000000000000036Z" fill="#4c78a8"/><path aria-label="SQuAD Exact Match Score: 0.19 – 0.2; Number of Questions: 33" role="graphics-symbol" aria-roledescription="bar" d="M77,296.1923076923077h3v3.807692307692321h-3Z" fill="#4c78a8"/><path aria-label="SQuAD Exact Match Score: 0.45 – 0.46; Number of Questions: 67" role="graphics-symbol" aria-roledescription="bar" d="M181,292.2692307692308h3v7.730769230769226h-3Z" fill="#4c78a8"/><path aria-label="SQuAD Exact Match Score: 0.38 – 0.39; Number of Questions: 26" role="graphics-symbol" aria-roledescription="bar" d="M153,297h3v3h-3Z" fill="#4c78a8"/><path aria-label="SQuAD Exact Match Score: 0.71 – 0.72; Number of Questions: 44" role="graphics-symbol" aria-roledescription="bar" d="M285,294.9230769230769h3v5.076923076923094h-3Z" fill="#4c78a8"/><path aria-label="SQuAD Exact Match Score: 0.91 – 0.92; Number of Questions: 389" role="graphics-symbol" aria-roledescription="bar" d="M365,255.1153846153846h3v44.88461538461539h-3Z" fill="#4c78a8"/><path aria-label="SQuAD Exact Match Score: 0.92 – 0.93; Number of Questions: 217" role="graphics-symbol" aria-roledescription="bar" d="M369,274.96153846153845h3v25.038461538461547h-3Z" fill="#4c78a8"/><path aria-label="SQuAD Exact Match Score: 0.84 – 0.85; Number of Questions: 93" role="graphics-symbol" aria-roledescription="bar" d="M337,289.2692307692308h3v10.730769230769226h-3Z" fill="#4c78a8"/><path aria-label="SQuAD Exact Match Score: 0.4 – 0.41; Number of Questions: 42" role="graphics-symbol" aria-roledescription="bar" d="M161,295.15384615384613h3v4.846153846153868h-3Z" fill="#4c78a8"/><path aria-label="SQuAD Exact Match Score: 0.21 – 0.22; Number of Questions: 31" role="graphics-symbol" aria-roledescription="bar" d="M85,296.4230769230769h3v3.5769230769230944h-3Z" fill="#4c78a8"/><path aria-label="SQuAD Exact Match Score: 0.05 – 0.06; Number of Questions: 24" role="graphics-symbol" aria-roledescription="bar" d="M21,297.2307692307692h3v2.7692307692307736h-3Z" fill="#4c78a8"/><path aria-label="SQuAD Exact Match Score: 0.13 – 0.14; Number of Questions: 29" role="graphics-symbol" aria-roledescription="bar" d="M53,296.65384615384613h3.000000000000007v3.346153846153868h-3.000000000000007Z" fill="#4c78a8"/><path aria-label="SQuAD Exact Match Score: 0.42 – 0.43; Number of Questions: 49" role="graphics-symbol" aria-roledescription="bar" d="M169,294.34615384615387h3v5.653846153846132h-3Z" fill="#4c78a8"/><path aria-label="SQuAD Exact Match Score: 0 – 0.01; Number of Questions: 39" role="graphics-symbol" aria-roledescription="bar" d="M1,295.5h3v4.5h-3Z" fill="#4c78a8"/><path aria-label="SQuAD Exact Match Score: 0.29 – 0.3; Number of Questions: 36" role="graphics-symbol" aria-roledescription="bar" d="M116.99999999999999,295.84615384615387h3.000000000000014v4.153846153846132h-3.000000000000014Z" fill="#4c78a8"/><path aria-label="SQuAD Exact Match Score: 0.74 – 0.75; Number of Questions: 50" role="graphics-symbol" aria-roledescription="bar" d="M297,294.2307692307692h3v5.769230769230774h-3Z" fill="#4c78a8"/><path aria-label="SQuAD Exact Match Score: 0.78 – 0.79; Number of Questions: 114" role="graphics-symbol" aria-roledescription="bar" d="M313,286.8461538461538h3v13.153846153846189h-3Z" fill="#4c78a8"/><path aria-label="SQuAD Exact Match Score: 0.22 – 0.23; Number of Questions: 33" role="graphics-symbol" aria-roledescription="bar" d="M89,296.1923076923077h3v3.807692307692321h-3Z" fill="#4c78a8"/><path aria-label="SQuAD Exact Match Score: 0.65 – 0.66; Number of Questions: 58" role="graphics-symbol" aria-roledescription="bar" d="M261,293.30769230769226h3v6.692307692307736h-3Z" fill="#4c78a8"/><path aria-label="SQuAD Exact Match Score: 0.53 – 0.54; Number of Questions: 29" role="graphics-symbol" aria-roledescription="bar" d="M213,296.65384615384613h3v3.346153846153868h-3Z" fill="#4c78a8"/><path aria-label="SQuAD Exact Match Score: 0.46 – 0.47; Number of Questions: 25" role="graphics-symbol" aria-roledescription="bar" d="M185,297.11538461538464h3v2.8846153846153584h-3Z" fill="#4c78a8"/><path aria-label="SQuAD Exact Match Score: 0.57 – 0.58; Number of Questions: 73" role="graphics-symbol" aria-roledescription="bar" d="M229.00000000000003,291.5769230769231h3v8.423076923076906h-3Z" fill="#4c78a8"/><path aria-label="SQuAD Exact Match Score: 0.69 – 0.7; Number of Questions: 40" role="graphics-symbol" aria-roledescription="bar" d="M277,295.3846153846154h3v4.615384615384585h-3Z" fill="#4c78a8"/><path aria-label="SQuAD Exact Match Score: 0.26 – 0.27; Number of Questions: 34" role="graphics-symbol" aria-roledescription="bar" d="M105,296.0769230769231h3v3.9230769230769056h-3Z" fill="#4c78a8"/><path aria-label="SQuAD Exact Match Score: 0.49 – 0.5; Number of Questions: 52" role="graphics-symbol" aria-roledescription="bar" d="M197,294h3v6h-3Z" fill="#4c78a8"/><path aria-label="SQuAD Exact Match Score: 0.37 – 0.38; Number of Questions: 43" role="graphics-symbol" aria-roledescription="bar" d="M149,295.03846153846155h3v4.961538461538453h-3Z" fill="#4c78a8"/><path aria-label="SQuAD Exact Match Score: 0.01 – 0.02; Number of Questions: 49" role="graphics-symbol" aria-roledescription="bar" d="M5,294.34615384615387h3v5.653846153846132h-3Z" fill="#4c78a8"/><path aria-label="SQuAD Exact Match Score: 0.61 – 0.62; Number of Questions: 44" role="graphics-symbol" aria-roledescription="bar" d="M245,294.9230769230769h3v5.076923076923094h-3Z" fill="#4c78a8"/><path aria-label="SQuAD Exact Match Score: 0.76 – 0.77; Number of Questions: 56" role="graphics-symbol" aria-roledescription="bar" d="M305,293.53846153846155h3v6.461538461538453h-3Z" fill="#4c78a8"/><path aria-label="SQuAD Exact Match Score: 0.55 – 0.56; Number of Questions: 70" role="graphics-symbol" aria-roledescription="bar" d="M221.00000000000003,291.9230769230769h3v8.076923076923094h-3Z" fill="#4c78a8"/><path aria-label="SQuAD Exact Match Score: 0.5 – 0.51; Number of Questions: 52" role="graphics-symbol" aria-roledescription="bar" d="M201,294h3v6h-3Z" fill="#4c78a8"/><path aria-label="SQuAD Exact Match Score: 0.31 – 0.32; Number of Questions: 39" role="graphics-symbol" aria-roledescription="bar" d="M125,295.5h3v4.5h-3Z" fill="#4c78a8"/><path aria-label="SQuAD Exact Match Score: 0.44 – 0.45; Number of Questions: 45" role="graphics-symbol" aria-roledescription="bar" d="M177,294.8076923076923h3v5.192307692307679h-3Z" fill="#4c78a8"/><path aria-label="SQuAD Exact Match Score: 0.36 – 0.37; Number of Questions: 30" role="graphics-symbol" aria-roledescription="bar" d="M145,296.53846153846155h3v3.461538461538453h-3Z" fill="#4c78a8"/><path aria-label="SQuAD Exact Match Score: 0.66 – 0.67; Number of Questions: 41" role="graphics-symbol" aria-roledescription="bar" d="M265,295.2692307692308h3v4.730769230769226h-3Z" fill="#4c78a8"/><path aria-label="SQuAD Exact Match Score: 0.32 – 0.33; Number of Questions: 46" role="graphics-symbol" aria-roledescription="bar" d="M129,294.6923076923077h3v5.307692307692321h-3Z" fill="#4c78a8"/><path aria-label="SQuAD Exact Match Score: 0.52 – 0.53; Number of Questions: 60" role="graphics-symbol" aria-roledescription="bar" d="M209,293.0769230769231h3v6.923076923076906h-3Z" fill="#4c78a8"/><path aria-label="SQuAD Exact Match Score: 0.33 – 0.34; Number of Questions: 18" role="graphics-symbol" aria-roledescription="bar" d="M133,297.9230769230769h3v2.0769230769230944h-3Z" fill="#4c78a8"/><path aria-label="SQuAD Exact Match Score: 0.3 – 0.31; Number of Questions: 17" role="graphics-symbol" aria-roledescription="bar" d="M121,298.03846153846155h3v1.9615384615384528h-3Z" fill="#4c78a8"/><path aria-label="SQuAD Exact Match Score: 0.02 – 0.03; Number of Questions: 37" role="graphics-symbol" aria-roledescription="bar" d="M9,295.7307692307692h3v4.269230769230774h-3Z" fill="#4c78a8"/><path aria-label="SQuAD Exact Match Score: 0.27 – 0.28; Number of Questions: 29" role="graphics-symbol" aria-roledescription="bar" d="M109,296.65384615384613h3.000000000000014v3.346153846153868h-3.000000000000014Z" fill="#4c78a8"/><path aria-label="SQuAD Exact Match Score: 0.43 – 0.44; Number of Questions: 12" role="graphics-symbol" aria-roledescription="bar" d="M173,298.61538461538464h3v1.3846153846153584h-3Z" fill="#4c78a8"/><path aria-label="SQuAD Exact Match Score: 0.51 – 0.52; Number of Questions: 22" role="graphics-symbol" aria-roledescription="bar" d="M205,297.46153846153845h3v2.538461538461547h-3Z" fill="#4c78a8"/><path aria-label="SQuAD Exact Match Score: 0.48 – 0.49; Number of Questions: 33" role="graphics-symbol" aria-roledescription="bar" d="M193,296.1923076923077h3v3.807692307692321h-3Z" fill="#4c78a8"/><path aria-label="SQuAD Exact Match Score: 0.56 – 0.57; Number of Questions: 24" role="graphics-symbol" aria-roledescription="bar" d="M225.00000000000003,297.2307692307692h3v2.7692307692307736h-3Z" fill="#4c78a8"/><path aria-label="SQuAD Exact Match Score: 0.12 – 0.13; Number of Questions: 9" role="graphics-symbol" aria-roledescription="bar" d="M49,298.96153846153845h3v1.0384615384615472h-3Z" fill="#4c78a8"/><path aria-label="SQuAD Exact Match Score: 0.6 – 0.61; Number of Questions: 67" role="graphics-symbol" aria-roledescription="bar" d="M241,292.2692307692308h3v7.730769230769226h-3Z" fill="#4c78a8"/><path aria-label="SQuAD Exact Match Score: 0.64 – 0.65; Number of Questions: 39" role="graphics-symbol" aria-roledescription="bar" d="M257,295.5h3v4.5h-3Z" fill="#4c78a8"/><path aria-label="SQuAD Exact Match Score: 0.35 – 0.36; Number of Questions: 19" role="graphics-symbol" aria-roledescription="bar" d="M141,297.8076923076923h3v2.192307692307679h-3Z" fill="#4c78a8"/><path aria-label="SQuAD Exact Match Score: 0.23 – 0.24; Number of Questions: 14" role="graphics-symbol" aria-roledescription="bar" d="M93,298.38461538461536h3v1.6153846153846416h-3Z" fill="#4c78a8"/><path aria-label="SQuAD Exact Match Score: 0.18 – 0.19; Number of Questions: 26" role="graphics-symbol" aria-roledescription="bar" d="M73,297h3v3h-3Z" fill="#4c78a8"/><path aria-label="SQuAD Exact Match Score: 0.41 – 0.42; Number of Questions: 14" role="graphics-symbol" aria-roledescription="bar" d="M165,298.38461538461536h3v1.6153846153846416h-3Z" fill="#4c78a8"/><path aria-label="SQuAD Exact Match Score: 0.2 – 0.21; Number of Questions: 12" role="graphics-symbol" aria-roledescription="bar" d="M81,298.61538461538464h3v1.3846153846153584h-3Z" fill="#4c78a8"/><path aria-label="SQuAD Exact Match Score: 0.07 – 0.08; Number of Questions: 13" role="graphics-symbol" aria-roledescription="bar" d="M29.000000000000004,298.5h2.9999999999999964v1.5h-2.9999999999999964Z" fill="#4c78a8"/><path aria-label="SQuAD Exact Match Score: 0.1 – 0.11; Number of Questions: 11" role="graphics-symbol" aria-roledescription="bar" d="M41,298.7307692307692h3v1.2692307692307736h-3Z" fill="#4c78a8"/><path aria-label="SQuAD Exact Match Score: 0.99 – 1; Number of Questions: 141" role="graphics-symbol" aria-roledescription="bar" d="M397,283.7307692307692h3v16.269230769230774h-3Z" fill="#4c78a8"/></g></g><path class="foreground" aria-hidden="true" d="" display="none"/></g></g></g></svg>